<svg id="アイコン" xmlns="http://www.w3.org/2000/svg" viewBox="0 0 140 140">
  <defs>
    <style>
      .cls-1,
      .cls-2,
      .cls-3 {
        fill: none;
        stroke-linecap: round;
        stroke-linejoin: round;
        stroke-width: 5px;
      }
      .cls-1 {
        stroke: #09ad00;
      }
      .cls-2 {
        stroke: #c00;
      }
      .cls-3 {
        stroke: #000;
        @media (prefers-color-scheme: dark) {
          stroke: #fff;
        }
      }
    </style>
  </defs>
  <path class="cls-1" d="M67.67,23.26a11.52,11.52,0,0,1,1.26-11.63,11.62,11.62,0,0,1,11-4.4A12.41,12.41,0,0,1,90,17.29c0-.73.1-7.16,5.34-11a13,13,0,0,1,15.89.35,13,13,0,0,1,3.9,13.16,12.48,12.48,0,0,1,11.62-5.65c.32,0,7.55.93,9.74,7.22,1.78,5.12-1.24,9.58-1.57,10.05"/>
  <path id="右風切羽" class="cls-1" d="M48.38,106.14A80.44,80.44,0,0,1,35.65,100C29.94,96.6,6.46,82.61,3.92,60,3.66,57.72,2,43.3,10.21,38c5.59-3.59,13.48-1.42,15.08-.94a22.78,22.78,0,0,1,9.42,5.66,29.07,29.07,0,0,1-3.3-11.08c-.29-3.41-1.22-14.32,5.83-18.45,5.13-3,11.78-.11,13.49.62a21.41,21.41,0,0,1,6.91,5,33.78,33.78,0,0,1,7.94,12.57"/>
  <path id="左風切羽" class="cls-1" d="M100.61,91.46c2-9.58,8.2-31.61,28-46.89a86.38,86.38,0,0,1,7.82-5.32"/>
  <g id="嘴">
    <path class="cls-2" d="M47.11,66.43l-14.8,7.21a2.25,2.25,0,0,0-1.61,2.28,2.32,2.32,0,0,0,1.23,1.52L50.24,89.05"/>
  </g>
  <g id="体">
    <path class="cls-1" d="M53.69,94.13a71.26,71.26,0,0,0,14.43,42.55"/>
    <path class="cls-1" d="M113.85,49.9a35.19,35.19,0,0,0-13.13-13c-9.59-5.34-22.49-6.31-32.89-.48C59.53,41,55.54,48.5,54.16,51.16a38.08,38.08,0,0,0-3.61,10.52"/>
  </g>
  <path id="目" class="cls-3" d="M74.39,63.67a5.94,5.94,0,0,0-6-3.27,7.26,7.26,0,0,0-4.72,3.15C60.27,68,61.31,74.75,64,78.13a5.22,5.22,0,0,0,7,1.56c2.69-1.38,3.5-4.44,4.06-6.55a15.3,15.3,0,0,0,.42-5.23A9.36,9.36,0,0,0,74.39,63.67Z"/>
</svg>
